<svg id="svg" xmlns="http://www.w3.org/2000/svg" xmlns:xlink="http://www.w3.org/1999/xlink" width="400" height="400" viewBox="0, 0, 400,400"><g id="svgg"><path id="path0" d="M216.810 21.787 C 208.600 27.824,188.504 68.844,187.272 82.080 C 186.036 95.365,200.911 95.295,204.562 82.000 C 207.562 71.075,212.322 59.196,220.154 43.086 C 226.308 30.428,227.986 26.080,227.487 24.091 C 226.022 18.255,222.614 17.520,216.810 21.787 M171.000 31.214 C 165.657 34.194,164.724 35.424,156.072 50.895 C 140.291 79.112,138.916 89.000,150.772 89.000 C 156.717 89.000,159.491 86.727,162.007 79.796 C 165.335 70.627,169.563 60.968,175.707 48.500 C 182.728 34.252,180.464 25.936,171.000 31.214 M235.762 54.404 C 221.949 77.827,219.672 85.201,225.024 89.178 C 230.441 93.203,236.398 87.831,243.736 72.303 C 245.764 68.011,249.143 61.451,251.244 57.724 C 254.887 51.263,255.334 43.443,252.092 42.901 C 251.766 42.847,249.553 42.709,247.174 42.595 L 242.848 42.387 235.762 54.404 M108.000 64.639 C 106.625 64.841,102.125 65.497,98.000 66.097 C 77.621 69.060,69.459 76.019,67.414 92.179 C 67.044 95.106,66.064 98.277,65.237 99.227 C 62.818 102.003,65.913 122.064,70.603 134.000 C 71.868 137.219,72.488 142.236,72.780 151.621 L 73.190 164.743 68.937 171.873 C 66.597 175.795,63.292 180.040,61.592 181.307 C 56.979 184.744,49.332 189.000,47.771 189.000 C 36.115 189.000,37.864 203.386,49.958 206.987 C 66.034 211.775,69.914 219.867,69.983 248.750 C 69.997 254.536,70.304 256.000,71.507 256.000 C 72.802 256.000,73.002 258.722,72.921 275.250 C 72.710 318.416,81.961 332.001,113.731 335.177 C 127.817 336.585,130.367 336.064,133.719 331.089 C 139.100 323.103,134.570 317.186,122.500 316.436 C 94.006 314.664,92.179 311.254,92.069 259.639 C 91.973 214.617,90.715 209.851,76.042 198.891 L 72.584 196.308 75.539 194.892 C 77.237 194.078,79.879 191.158,81.751 188.026 C 83.542 185.028,86.308 181.107,87.898 179.311 C 93.240 173.277,94.810 146.496,90.641 132.500 C 85.752 116.082,84.607 87.302,88.665 82.818 C 91.924 79.217,116.062 76.147,119.392 78.910 C 121.299 80.493,127.774 76.521,128.630 73.243 C 130.351 66.659,120.950 62.738,108.000 64.639 M276.222 65.470 C 273.869 66.204,270.411 67.974,268.539 69.403 C 266.666 70.831,264.693 72.000,264.155 72.000 C 263.616 72.000,262.857 73.889,262.467 76.197 C 261.426 82.360,265.088 85.440,272.406 84.557 C 288.173 82.656,288.453 82.669,291.772 85.461 C 298.727 91.314,301.885 106.726,303.563 143.000 C 304.587 165.144,307.576 174.380,315.736 180.610 L 318.972 183.080 315.995 188.354 C 310.477 198.133,309.191 211.485,308.200 269.331 C 307.425 314.546,307.684 313.000,300.868 313.000 C 299.355 313.000,297.840 313.450,297.500 314.000 C 296.658 315.362,286.378 315.266,282.491 313.861 C 276.930 311.850,271.755 313.796,270.213 318.478 C 266.858 328.659,272.434 332.118,292.414 332.251 C 323.053 332.455,325.858 327.300,326.019 270.500 C 326.096 243.303,328.134 206.011,329.764 201.968 C 330.387 200.422,332.871 198.364,336.142 196.684 C 353.249 187.897,356.559 179.356,344.999 173.830 C 322.352 163.003,324.121 166.059,322.965 135.763 C 320.751 77.709,306.355 56.060,276.222 65.470 M167.500 120.196 C 165.024 120.812,153.503 120.957,137.260 120.577 L 111.021 119.962 107.095 122.440 C 100.931 126.331,100.185 132.001,103.400 150.500 C 104.432 156.434,105.105 168.134,105.378 184.846 C 105.863 214.566,105.002 212.580,117.257 212.263 C 122.289 212.133,129.127 212.445,132.453 212.956 C 147.429 215.259,173.335 214.713,177.279 212.011 C 183.073 208.041,185.057 202.182,185.906 186.545 L 186.500 175.589 196.500 175.862 C 205.641 176.111,213.087 176.796,213.772 177.451 C 213.922 177.594,213.573 185.961,212.997 196.045 C 211.654 219.574,211.860 219.775,235.264 217.767 C 240.894 217.283,253.375 216.710,263.000 216.493 C 272.625 216.276,282.075 215.646,284.000 215.093 C 285.925 214.541,289.209 213.819,291.298 213.490 C 296.338 212.696,299.322 208.207,298.435 202.756 C 298.100 200.696,297.717 183.369,297.585 164.250 C 297.324 126.838,297.168 125.653,291.976 121.813 C 289.410 119.916,287.298 120.136,280.500 123.011 C 279.400 123.476,269.725 124.143,259.000 124.493 C 248.275 124.843,237.475 125.584,235.000 126.140 C 231.088 127.017,229.969 126.861,226.434 124.946 L 222.369 122.743 217.722 124.799 C 211.835 127.403,211.255 129.486,212.931 141.999 C 213.631 147.225,214.419 154.455,214.682 158.067 L 215.159 164.633 205.330 164.510 C 199.923 164.443,193.549 164.301,191.164 164.194 L 186.829 164.000 187.537 145.250 C 188.357 123.516,188.342 123.472,179.135 120.647 C 173.147 118.809,173.085 118.806,167.500 120.196 M152.000 136.351 C 157.775 136.368,164.300 136.082,166.500 135.715 C 169.226 135.260,169.863 135.336,168.500 135.953 C 166.600 136.814,166.595 136.863,168.404 136.930 C 170.346 137.001,170.314 167.724,168.348 190.708 L 167.732 197.917 156.616 197.419 C 150.502 197.145,141.082 196.459,135.683 195.896 C 130.284 195.332,124.599 195.149,123.051 195.489 L 120.235 196.107 120.102 178.452 C 120.028 168.741,119.300 156.039,118.484 150.224 C 117.668 144.409,117.000 138.566,117.000 137.238 L 117.000 134.825 129.250 135.572 C 135.988 135.984,146.225 136.334,152.000 136.351 M278.527 139.291 C 278.866 141.102,279.142 145.714,279.139 149.541 C 279.117 175.645,279.185 192.056,279.331 195.500 L 279.500 199.500 262.000 199.631 C 252.235 199.704,242.956 200.256,241.007 200.881 C 239.085 201.496,235.812 202.000,233.733 202.000 L 229.953 202.000 230.543 194.250 C 232.012 174.947,232.531 157.710,231.889 149.466 C 230.957 137.488,228.980 138.481,256.500 137.100 C 265.300 136.659,273.717 136.230,275.205 136.149 C 277.515 136.022,277.999 136.480,278.527 139.291 M174.070 239.776 C 166.155 247.691,172.215 269.111,183.823 274.246 C 202.539 282.525,225.240 261.871,217.579 243.534 C 212.933 232.414,201.856 237.446,204.113 249.651 L 205.193 255.494 201.393 258.779 C 192.429 266.528,181.729 259.973,182.294 247.080 C 182.671 238.478,178.804 235.043,174.070 239.776 M235.536 285.102 C 233.721 286.696,231.773 288.000,231.207 288.000 C 230.244 288.000,229.273 289.087,223.083 297.094 C 220.586 300.323,209.335 309.000,207.644 309.000 C 207.119 309.000,205.196 307.861,203.371 306.469 C 194.719 299.870,169.570 288.073,161.641 286.893 C 148.476 284.935,145.835 287.798,147.891 301.796 C 151.165 324.079,152.096 332.683,152.928 348.341 C 154.085 370.105,154.200 370.275,167.332 369.636 L 176.249 369.202 181.375 364.184 C 184.194 361.424,189.200 356.847,192.500 354.014 C 195.800 351.181,200.789 346.386,203.587 343.358 L 208.673 337.854 222.446 351.428 C 240.424 369.149,246.199 371.856,252.837 365.676 C 257.379 361.448,257.999 358.092,258.019 337.628 C 258.031 326.302,258.630 314.421,259.488 308.500 C 262.787 285.730,261.492 282.893,247.607 282.471 C 239.182 282.215,238.706 282.319,235.536 285.102 " stroke="none" fill="#000000" fill-rule="evenodd"></path></g></svg>