<?xml version="1.0" standalone="no"?>
<!DOCTYPE svg PUBLIC "-//W3C//DTD SVG 20010904//EN"
 "http://www.w3.org/TR/2001/REC-SVG-20010904/DTD/svg10.dtd">
<svg version="1.0" xmlns="http://www.w3.org/2000/svg"
 width="400.000000pt" height="400.000000pt" viewBox="0 0 400.000000 400.000000"
 preserveAspectRatio="xMidYMid meet">
<metadata>
Created by potrace 1.14, written by Peter Selinger 2001-2017
</metadata>
<g transform="translate(0.000000,400.000000) scale(0.100000,-0.100000)"
fill="#000000" stroke="none">
<path d="M2168 3782 c-82 -60 -283 -470 -295 -603 -5 -52 -4 -57 22 -77 35
-28 60 -28 102 1 26 17 37 35 49 77 30 109 77 228 156 389 61 127 78 170 73
190 -15 58 -49 66 -107 23z"/>
<path d="M1710 3688 c-19 -11 -43 -27 -52 -36 -25 -25 -174 -294 -203 -368
-46 -114 -28 -174 53 -174 59 0 87 23 112 92 34 95 76 191 137 313 53 108 54
111 39 142 -22 46 -44 54 -86 31z"/>
<path d="M2358 3456 c-139 -234 -161 -308 -108 -348 54 -40 114 14 187 169 21
43 54 108 75 146 37 64 38 70 27 107 -7 22 -15 40 -18 41 -3 1 -25 2 -49 3
l-44 2 -70 -120z"/>
<path d="M1080 3354 c-14 -2 -59 -9 -100 -15 -98 -14 -176 -41 -218 -74 -41
-33 -79 -113 -88 -187 -4 -29 -13 -61 -22 -70 -13 -15 -13 -30 -3 -105 13 -99
31 -177 57 -243 13 -32 19 -82 22 -176 l4 -131 -43 -72 c-23 -39 -56 -81 -73
-94 -46 -34 -123 -77 -138 -77 -8 0 -26 -6 -40 -12 -20 -10 -27 -22 -32 -57
-9 -65 9 -86 94 -111 88 -26 151 -73 168 -124 15 -48 32 -196 32 -293 0 -58 3
-73 15 -73 13 0 15 -27 14 -192 -1 -203 8 -267 53 -391 25 -69 83 -126 173
-168 47 -23 86 -31 182 -41 141 -14 167 -9 200 41 30 45 29 74 -4 111 -26 28
-34 31 -108 36 -150 9 -231 38 -259 92 -36 71 -45 161 -45 476 -1 322 -9 413
-41 476 -21 42 -67 92 -120 131 l-34 26 29 14 c17 8 44 37 63 69 17 30 45 69
61 87 46 52 51 81 47 252 -3 116 -9 176 -25 234 -32 123 -44 240 -37 357 8
116 16 133 75 150 60 17 238 25 255 11 12 -10 22 -8 50 11 43 28 54 59 32 93
-24 37 -102 52 -196 39z"/>
<path d="M2762 3345 c-23 -7 -58 -25 -77 -39 -18 -14 -38 -26 -43 -26 -6 0
-13 -19 -17 -42 -7 -38 -5 -44 19 -65 30 -25 92 -31 128 -12 30 16 106 13 134
-6 77 -50 113 -209 129 -575 4 -74 11 -162 16 -195 12 -70 59 -155 106 -191
l33 -25 -30 -53 c-55 -97 -68 -231 -78 -809 -7 -389 -8 -409 -26 -423 -11 -8
-32 -14 -47 -14 -15 0 -31 -4 -34 -10 -8 -14 -111 -13 -150 1 -21 8 -44 9 -71
3 -33 -8 -41 -15 -52 -49 -20 -61 -8 -90 45 -115 40 -19 65 -22 177 -23 194
-1 243 19 290 116 35 70 45 186 46 502 1 272 21 645 38 685 6 16 31 36 63 53
80 41 132 79 149 110 14 25 13 30 -5 65 -12 22 -34 44 -55 54 -226 108 -209
77 -220 380 -16 405 -63 571 -188 661 -26 18 -62 39 -81 45 -44 16 -145 14
-199 -3z"/>
<path d="M1675 2798 c-25 -6 -140 -8 -302 -4 l-263 6 -39 -24 c-22 -14 -43
-31 -47 -37 -12 -20 -7 -148 10 -244 10 -60 17 -176 20 -344 3 -172 8 -257 16
-265 7 -7 44 -10 103 -9 50 2 118 -1 152 -7 33 -5 139 -10 236 -12 173 -3 176
-3 212 22 58 40 78 98 86 255 l6 109 100 -3 c91 -2 166 -9 173 -16 1 -1 -2
-85 -8 -185 -9 -159 -8 -186 4 -199 22 -22 103 -29 219 -19 56 5 181 11 277
13 96 2 191 9 210 14 19 6 52 13 73 16 50 8 80 53 71 107 -3 21 -7 194 -8 386
-3 374 -4 385 -56 424 -26 19 -47 17 -115 -12 -11 -5 -108 -11 -215 -15 -107
-3 -215 -11 -240 -16 -39 -9 -50 -8 -86 12 l-40 22 -47 -21 c-59 -26 -64 -47
-48 -172 7 -52 15 -125 18 -161 l5 -65 -99 1 c-54 1 -118 2 -141 3 l-44 2 7
188 c9 217 8 217 -84 246 -60 18 -60 18 -116 4z m-155 -162 c58 0 123 3 145 7
27 4 34 4 20 -3 -19 -8 -19 -9 -1 -9 18 -1 19 -9 12 -233 -3 -128 -9 -265 -13
-305 l-6 -72 -111 5 c-61 3 -155 9 -209 15 -54 6 -111 8 -126 4 l-29 -6 -1
176 c-1 98 -8 225 -16 283 -8 58 -15 116 -15 130 l0 24 123 -8 c67 -4 169 -7
227 -8z m1265 -29 c4 -18 6 -64 6 -102 1 -304 1 -426 2 -460 l2 -40 -175 -1
c-98 -1 -190 -7 -210 -13 -19 -6 -52 -11 -73 -11 l-37 0 5 78 c15 193 20 365
14 447 -4 50 -5 93 -3 97 7 11 76 18 249 27 88 4 172 9 187 10 23 1 28 -4 33
-32z"/>
<path d="M1741 1602 c-31 -31 -47 -100 -36 -155 4 -18 25 -63 47 -101 33 -57
48 -71 86 -88 70 -31 137 -28 205 11 96 55 147 129 147 216 0 63 -22 110 -60
130 -29 15 -34 15 -55 1 -39 -26 -46 -48 -34 -113 l11 -58 -38 -33 c-70 -60
-114 -54 -164 24 -23 37 -29 56 -27 93 2 47 -21 101 -44 101 -6 0 -23 -12 -38
-28z"/>
<path d="M2355 1149 c-18 -16 -37 -29 -43 -29 -10 0 -19 -11 -81 -91 -25 -32
-138 -119 -155 -119 -5 0 -24 11 -42 25 -19 14 -102 61 -187 105 -129 67 -165
81 -231 91 -88 13 -113 7 -136 -35 -12 -23 -12 -40 -1 -114 33 -223 42 -309
50 -465 9 -156 11 -171 32 -193 22 -23 28 -24 112 -20 l89 4 52 50 c28 28 78
74 111 102 33 28 83 76 111 106 l51 55 137 -135 c180 -177 238 -205 304 -143
46 43 52 76 52 281 0 113 6 232 15 291 21 149 20 198 -8 231 -22 25 -30 27
-111 29 -84 3 -89 2 -121 -26z"/>
</g>
</svg>
